<svg id="Capa_1" enable-background="new 0 0 512 512" height="512" viewBox="0 0 512 512" width="512" xmlns="http://www.w3.org/2000/svg"><g><g><path d="m298.25 397.759v83.394c0 12.894-10.453 23.347-23.347 23.347h-38.972c-12.894 0-23.347-10.453-23.347-23.347s10.453-23.347 23.347-23.347h15.625v-60.047z" fill="#f90"/></g><g><path d="m189.59 397.759v83.394c0 12.894-10.453 23.347-23.347 23.347h-38.973c-12.894 0-23.347-10.453-23.347-23.347s10.453-23.347 23.347-23.347h15.625v-60.047z" fill="#f90"/></g><path d="m142.895 397.759h46.695v31.199h-46.695z" fill="#f95116"/><path d="m251.555 397.759h46.695v31.199h-46.695z" fill="#f95116"/><path d="m258.969 106.701v-53.062c0-.78-.634-1.414-1.414-1.414h-75.719c-.779 0-1.414.634-1.414 1.414v53.062h-44.725v-53.062c0-25.482 20.657-46.139 46.139-46.139h75.719c25.482 0 46.139 20.657 46.139 46.139v53.062z" fill="#7181ff"/><g><path d="m303.694 114.201c-4.142 0-7.5-3.358-7.5-7.5v-53.062c0-21.306-17.333-38.639-38.639-38.639h-75.719c-21.306 0-38.639 17.333-38.639 38.639v53.062c0 4.142-3.358 7.5-7.5 7.5s-7.5-3.358-7.5-7.5v-53.062c0-29.577 24.062-53.639 53.639-53.639h75.719c29.577 0 53.639 24.062 53.639 53.639v53.062c0 4.142-3.358 7.5-7.5 7.5z" fill="#2115c2"/></g><g><path d="m258.969 114.201c-4.142 0-7.5-3.358-7.5-7.5v-46.976h-63.547v46.976c0 4.142-3.358 7.5-7.5 7.5s-7.5-3.358-7.5-7.5v-53.062c0-4.915 3.999-8.914 8.914-8.914h75.719c4.915 0 8.914 3.999 8.914 8.914v53.062c0 4.142-3.358 7.5-7.5 7.5z" fill="#2115c2"/></g><path d="m453.667 106.701h-17.602c-16.639 0-30.127 13.488-30.127 30.127v230.804c0 16.639 13.488 30.127 30.127 30.127h17.602c16.639 0 30.127-13.488 30.127-30.127v-230.804c0-16.639-13.488-30.127-30.127-30.127z" fill="#f90"/><path d="m436.065 106.701h-377.732c-16.639 0-30.127 13.488-30.127 30.127v230.804c0 16.639 13.488 30.127 30.127 30.127h377.732c-16.639 0-30.127-13.488-30.127-30.127v-230.804c0-16.639 13.488-30.127 30.127-30.127z" fill="#ffd600"/><path d="m97.625 158.547h35.924c.726 0 1.442.043 2.148.118v-51.964h-40.221v51.964c.707-.075 1.423-.118 2.149-.118z" fill="#f90"/><path d="m133.549 158.547h-35.924c-11.107 0-20.11 9.004-20.11 20.11 0 11.107 9.004 20.11 20.11 20.11h35.924c11.107 0 20.11-9.004 20.11-20.11s-9.004-20.11-20.11-20.11z" fill="#7181ff"/><path d="m97.625 305.691h35.924c.726 0 1.442.043 2.148.118v-107.159c-.706.075-1.422.118-2.148.118h-35.924c-.726 0-1.442-.043-2.148-.118v107.159c.706-.075 1.422-.118 2.148-.118z" fill="#f90"/><path d="m133.549 345.912h-35.924c-.726 0-1.442-.043-2.148-.118v51.964h40.221v-51.964c-.707.075-1.423.118-2.149.118z" fill="#f90"/><path d="m133.549 345.912h-35.924c-11.107 0-20.11-9.004-20.11-20.11 0-11.107 9.004-20.11 20.11-20.11h35.924c11.107 0 20.11 9.004 20.11 20.11s-9.004 20.11-20.11 20.11z" fill="#7181ff"/><path d="m305.842 158.547h35.924c.726 0 1.442.043 2.148.118v-51.964h-40.221v51.964c.707-.075 1.423-.118 2.149-.118z" fill="#f90"/><path d="m341.767 158.547h-35.924c-11.107 0-20.11 9.004-20.11 20.11 0 11.107 9.004 20.11 20.11 20.11h35.924c11.107 0 20.11-9.004 20.11-20.11s-9.004-20.11-20.11-20.11z" fill="#7181ff"/><path d="m305.842 305.691h35.924c.726 0 1.442.043 2.148.118v-107.159c-.706.075-1.422.118-2.148.118h-35.924c-.726 0-1.442-.043-2.148-.118v107.159c.706-.075 1.422-.118 2.148-.118z" fill="#f90"/><path d="m341.767 345.912h-35.924c-.726 0-1.442-.043-2.148-.118v51.964h40.221v-51.964c-.707.075-1.423.118-2.149.118z" fill="#f90"/><path d="m341.767 345.912h-35.924c-11.107 0-20.11-9.004-20.11-20.11 0-11.107 9.004-20.11 20.11-20.11h35.924c11.107 0 20.11 9.004 20.11 20.11s-9.004 20.11-20.11 20.11z" fill="#7181ff"/><g><path d="m135.697 313.309c-4.142 0-7.5-3.358-7.5-7.5v-107.159c0-4.142 3.358-7.5 7.5-7.5s7.5 3.358 7.5 7.5v107.159c0 4.142-3.358 7.5-7.5 7.5z" fill="#f95116"/></g><g><path d="m95.476 313.309c-4.142 0-7.5-3.358-7.5-7.5v-107.159c0-4.142 3.358-7.5 7.5-7.5s7.5 3.358 7.5 7.5v107.159c0 4.142-3.358 7.5-7.5 7.5z" fill="#f95116"/></g><g><path d="m343.915 313.309c-4.142 0-7.5-3.358-7.5-7.5v-107.159c0-4.142 3.358-7.5 7.5-7.5s7.5 3.358 7.5 7.5v107.159c0 4.142-3.358 7.5-7.5 7.5z" fill="#f95116"/></g><g><path d="m303.694 313.309c-4.142 0-7.5-3.358-7.5-7.5v-107.159c0-4.142 3.358-7.5 7.5-7.5s7.5 3.358 7.5 7.5v107.159c0 4.142-3.358 7.5-7.5 7.5z" fill="#f95116"/></g><path d="m453.667 99.201c-143.627 0-253.347 0-395.334 0-20.748 0-37.627 16.879-37.627 37.627v230.804c0 20.748 16.879 37.627 37.627 37.627h77.063v45.047h-8.125c-17.009 0-30.847 13.838-30.847 30.847s13.837 30.847 30.846 30.847h38.972c17.009 0 30.847-13.838 30.847-30.847v-75.894h46.966v45.047h-8.125c-17.009 0-30.847 13.838-30.847 30.847s13.839 30.847 30.848 30.847h38.972c17.009 0 30.848-13.838 30.848-30.847v-75.894h147.917c20.748 0 37.627-16.879 37.627-37.627v-230.804c-.001-20.748-16.88-37.627-37.628-37.627zm-271.577 381.952c0 8.738-7.109 15.847-15.847 15.847h-38.973c-8.738 0-15.847-7.109-15.847-15.847s7.109-15.847 15.847-15.847h15.625c4.142 0 7.5-3.358 7.5-7.5v-52.547h31.694v75.894zm108.66 0c0 8.738-7.109 15.847-15.848 15.847h-38.972c-8.738 0-15.847-7.109-15.847-15.847s7.109-15.847 15.847-15.847h15.625c4.142 0 7.5-3.358 7.5-7.5v-52.547h31.695zm115.269-90.894h-54.604v-44.464c0-4.142-3.358-7.5-7.5-7.5s-7.5 3.358-7.5 7.5v44.464h-25.221v-44.464c0-4.142-3.358-7.5-7.5-7.5s-7.5 3.358-7.5 7.5v44.464c-43.962 0-101.251 0-152.997 0v-44.464c0-4.142-3.358-7.5-7.5-7.5s-7.5 3.358-7.5 7.5v44.464h-25.221v-44.464c0-4.142-3.358-7.5-7.5-7.5s-7.5 3.358-7.5 7.5v44.464h-29.643c-12.477 0-22.627-10.15-22.627-22.627v-230.804c0-12.477 10.15-22.627 22.627-22.627h29.644v44.464c0 4.143 3.358 7.5 7.5 7.5s7.5-3.357 7.5-7.5v-44.464h25.221v44.464c0 4.143 3.358 7.5 7.5 7.5s7.5-3.357 7.5-7.5v-44.464h152.997v44.464c0 4.143 3.358 7.5 7.5 7.5s7.5-3.357 7.5-7.5v-44.464h25.221v44.464c0 4.143 3.358 7.5 7.5 7.5s7.5-3.357 7.5-7.5v-44.464h54.604c-5.012 6.659-7.582 14.585-7.582 22.627v230.804c0 8.154 2.595 15.955 7.581 22.627zm70.275-22.627c0 12.477-10.15 22.627-22.627 22.627h-17.603c-12.477 0-22.627-10.15-22.627-22.627v-230.804c0-12.495 10.168-22.627 22.627-22.627h17.603c12.477 0 22.627 10.15 22.627 22.627z" fill="#f95116"/><g><circle cx="266" cy="261.031" fill="#f95116" r="9.825"/></g><g><path d="m240.499 295.011h-41.606c-4.142 0-7.5-3.358-7.5-7.5s3.358-7.5 7.5-7.5h41.606c4.142 0 7.5 3.358 7.5 7.5s-3.358 7.5-7.5 7.5z" fill="#f95116"/></g><g><circle cx="173.391" cy="261.031" fill="#f95116" r="9.825"/></g><g><path d="m133.549 206.268h-35.924c-15.225 0-27.61-12.386-27.61-27.61s12.386-27.61 27.61-27.61h35.924c15.225 0 27.61 12.386 27.61 27.61s-12.385 27.61-27.61 27.61zm-35.924-40.221c-6.954 0-12.61 5.657-12.61 12.61s5.657 12.61 12.61 12.61h35.924c6.953 0 12.61-5.657 12.61-12.61s-5.657-12.61-12.61-12.61z" fill="#2115c2"/></g><g><path d="m133.549 353.412h-35.924c-15.225 0-27.61-12.386-27.61-27.61s12.386-27.61 27.61-27.61h35.924c15.225 0 27.61 12.386 27.61 27.61s-12.385 27.61-27.61 27.61zm-35.924-40.221c-6.954 0-12.61 5.657-12.61 12.61s5.657 12.61 12.61 12.61h35.924c6.953 0 12.61-5.657 12.61-12.61s-5.657-12.61-12.61-12.61z" fill="#2115c2"/></g><g><path d="m341.766 206.268h-35.924c-15.225 0-27.61-12.386-27.61-27.61s12.386-27.61 27.61-27.61h35.924c15.225 0 27.61 12.386 27.61 27.61.001 15.224-12.385 27.61-27.61 27.61zm-35.924-40.221c-6.953 0-12.61 5.657-12.61 12.61s5.657 12.61 12.61 12.61h35.924c6.953 0 12.61-5.657 12.61-12.61s-5.657-12.61-12.61-12.61z" fill="#2115c2"/></g><g><path d="m341.766 353.412h-35.924c-15.225 0-27.61-12.386-27.61-27.61s12.386-27.61 27.61-27.61h35.924c15.225 0 27.61 12.386 27.61 27.61s-12.385 27.61-27.61 27.61zm-35.924-40.221c-6.953 0-12.61 5.657-12.61 12.61s5.657 12.61 12.61 12.61h35.924c6.953 0 12.61-5.657 12.61-12.61s-5.657-12.61-12.61-12.61z" fill="#2115c2"/></g></g></svg>